# xmcd
#
# Track frame offsets: 
#        150
#        18783
#        38753
#        54838
#        69297
#        82502
#        97620
#        112516
#        130049
#        141821
#
# Disc length: 2036 seconds
#
# Revision: 0
# Processed by: cddbd v1.5.2PL0 Copyright (c) Steve Scherf et al.
# Submitted via: ExactAudioCopy v0.99pb5
#
DISCID=5b07f20a
DTITLE=Mike Coston - These Blues Are For You
DYEAR=2005
DGENRE=Blues
TTITLE0=One Trick Pony
TTITLE1=She Got My Money Too
TTITLE2=Turn That God Damn Thing Down
TTITLE3=You're Alright
TTITLE4=The Bauxhall Stroll
TTITLE5=Please Take Me Home
TTITLE6=Walkin' Away
TTITLE7=I Don't Care
TTITLE8=Won't You Shimmy That Way
TTITLE9=Bobby's Blues
EXTD=
EXTT0=
EXTT1=
EXTT2=
EXTT3=
EXTT4=
EXTT5=
EXTT6=
EXTT7=
EXTT8=
EXTT9=
PLAYORDER=
